<svg xmlns="http://www.w3.org/2000/svg" viewBox="0 0 1440 300" preserveAspectRatio="xMidYMax slice" width="100%" height="300">
  <!-- White background sky -->
  <rect width="1440" height="300" fill="#ffffff"/>

  <!-- ====================================================
       LAYER 1 · DISTANT BACKGROUND  #c0c0c0
       ==================================================== -->
  <g fill="#c0c0c0">
    <!-- Far-left blocks -->
    <rect x="0"   y="195" width="55"  height="105"/>
    <rect x="50"  y="180" width="60"  height="120"/>
    <rect x="105" y="188" width="42"  height="112"/>

    <!-- Tall thin Torre Collserola-style tower -->
    <rect x="208" y="216" width="18"  height="34" rx="1"/><!-- base -->
    <rect x="213" y="130" width="7"   height="88"/>       <!-- lower shaft -->
    <rect x="198" y="165" width="30"  height="8"  rx="3"/><!-- disc -->
    <rect x="214" y="88"  width="5"   height="44"/>       <!-- upper shaft -->
    <rect x="208" y="80"  width="13"  height="11" rx="2"/><!-- top box -->
    <rect x="212" y="58"  width="3"   height="24"/>       <!-- antenna -->

    <!-- Background fill blocks -->
    <rect x="148" y="183" width="52"  height="117"/>
    <rect x="260" y="168" width="60"  height="132"/>
    <rect x="318" y="175" width="50"  height="125"/>
    <rect x="365" y="162" width="56"  height="138"/>
    <rect x="418" y="170" width="46"  height="130"/>
    <rect x="462" y="158" width="60"  height="142"/>
    <rect x="520" y="146" width="40"  height="154"/>
    <rect x="560" y="140" width="26"  height="160"/>
    <rect x="668" y="150" width="48"  height="150"/>
    <rect x="714" y="158" width="40"  height="142"/>
    <rect x="758" y="165" width="30"  height="135"/>
    <rect x="848" y="165" width="56"  height="135"/>
    <rect x="900" y="153" width="70"  height="147"/>
    <rect x="968" y="163" width="50"  height="137"/>
    <rect x="1018" y="170" width="60" height="130"/>
    <rect x="1078" y="158" width="50" height="142"/>
    <rect x="1128" y="173" width="44" height="127"/>
    <rect x="1176" y="160" width="56" height="140"/>
    <rect x="1232" y="168" width="50" height="132"/>
    <rect x="1282" y="175" width="60" height="125"/>
    <rect x="1342" y="166" width="46" height="134"/>
    <rect x="1390" y="178" width="52" height="122"/>
  </g>

  <!-- ====================================================
       LAYER 2 · MID-GROUND  #808080
       ==================================================== -->
  <g fill="#808080">

    <!-- ── Angular/modern buildings left-center ── -->
    <!-- Triangular-peaked building 1 -->
    <rect x="340" y="192" width="34"  height="68"/>
    <polygon points="340,192 357,125 374,192"/>
    <!-- Tall slab with pointed top -->
    <rect x="380" y="122" width="25"  height="138"/>
    <polygon points="380,122 392,98  405,122"/>
    <!-- Diamond-angle building -->
    <rect x="412" y="135" width="23"  height="125"/>
    <polygon points="412,135 423,108 435,135"/>
    <!-- Another pointed slab -->
    <rect x="444" y="128" width="27"  height="132"/>
    <polygon points="444,128 457,103 471,128"/>
    <!-- Short angular -->
    <rect x="478" y="148" width="20"  height="112"/>
    <polygon points="478,148 488,130 499,148"/>
    <rect x="506" y="153" width="28"  height="107"/>

    <!-- ─────────────── SAGRADA FAMÍLIA ─────────────── -->
    <!-- Cathedral body -->
    <rect x="545" y="178" width="152" height="82"/>
    <!-- Central raised nave -->
    <rect x="556" y="160" width="132" height="22"/>
    <!-- Facade gable peaks -->
    <polygon points="570,160 581,140 592,160"/>
    <polygon points="594,160 606,133 618,160"/>
    <polygon points="620,160 631,140 642,160"/>

    <!-- Hidden central tower (partially visible between spires) -->
    <rect x="591" y="108" width="18"  height="72"/>
    <rect x="589" y="104" width="22"  height="7" rx="2"/>

    <!-- ▪ TOWER 1 (leftmost · center x=571) ▪ -->
    <rect x="558" y="115" width="24"  height="70"/>
    <!-- Decorative waist band -->
    <rect x="554" y="134" width="32"  height="17" rx="4"/>
    <!-- Crown bulb -->
    <ellipse cx="570" cy="105" rx="16" ry="21"/>
    <!-- Crown spheres (artichoke) -->
    <circle cx="570" cy="85"  r="10"/>
    <circle cx="559" cy="93"  r="7.5"/>
    <circle cx="581" cy="93"  r="7.5"/>
    <circle cx="563" cy="82"  r="6"/>
    <circle cx="577" cy="80"  r="6.5"/>
    <!-- Spire + cross -->
    <rect x="568" y="63"  width="4"   height="24"/>
    <rect x="560" y="69"  width="20"  height="4"/>

    <!-- ▪ TOWER 2 (tallest · center x=602) ▪ -->
    <rect x="588" y="96"  width="27"  height="92"/>
    <rect x="583" y="118" width="37"  height="19" rx="4"/>
    <ellipse cx="601" cy="84" rx="18" ry="24"/>
    <!-- Crown spheres -->
    <circle cx="601" cy="61"  r="12"/>
    <circle cx="588" cy="72"  r="9"/>
    <circle cx="614" cy="72"  r="9"/>
    <circle cx="591" cy="59"  r="7.5"/>
    <circle cx="611" cy="56"  r="8"/>
    <circle cx="601" cy="51"  r="7"/>
    <!-- Spire + cross -->
    <rect x="599" y="38"  width="4"   height="25"/>
    <rect x="590" y="44"  width="22"  height="4"/>

    <!-- ▪ TOWER 3 (center x=634) ▪ -->
    <rect x="621" y="103" width="26"  height="85"/>
    <rect x="616" y="124" width="36"  height="18" rx="4"/>
    <ellipse cx="634" cy="92" rx="17" ry="23"/>
    <!-- Crown spheres -->
    <circle cx="634" cy="70"  r="11"/>
    <circle cx="622" cy="80"  r="8"/>
    <circle cx="646" cy="80"  r="8"/>
    <circle cx="625" cy="68"  r="6.5"/>
    <circle cx="643" cy="66"  r="7"/>
    <!-- Spire + cross -->
    <rect x="632" y="48"  width="4"   height="24"/>
    <rect x="623" y="54"  width="22"  height="4"/>

    <!-- ▪ TOWER 4 (rightmost · center x=661) ▪ -->
    <rect x="649" y="117" width="24"  height="73"/>
    <rect x="645" y="136" width="32"  height="16" rx="4"/>
    <ellipse cx="661" cy="108" rx="15" ry="20"/>
    <!-- Crown spheres -->
    <circle cx="661" cy="89"  r="10"/>
    <circle cx="651" cy="97"  r="7.5"/>
    <circle cx="671" cy="97"  r="7.5"/>
    <circle cx="654" cy="87"  r="6"/>
    <circle cx="668" cy="85"  r="6.5"/>
    <!-- Spire + cross -->
    <rect x="659" y="68"  width="4"   height="23"/>
    <rect x="651" y="74"  width="18"  height="4"/>

    <!-- Buildings between Sagrada and Torre Agbar -->
    <rect x="706" y="143" width="28"  height="117"/>
    <rect x="731" y="133" width="24"  height="127"/>
    <rect x="752" y="152" width="18"  height="108"/>

    <!-- ─────────────── TORRE AGBAR / GLÒRIES ─────────────── -->
    <!-- Smooth bullet / teardrop shape -->
    <path d="M 769 196
             L 769 156
             C 769 117 778 106 792 104
             C 806 106 815 117 815 156
             L 815 196 Z"/>
    <!-- Dome cap at top -->
    <ellipse cx="792" cy="105" rx="23"  ry="10"/>

    <!-- Buildings right of Torre Agbar -->
    <rect x="823" y="135" width="28"  height="120"/>
    <rect x="848" y="124" width="23"  height="131"/>
    <polygon points="848,124 860,95 873,124"/>

    <!-- Domed/arched structure (~x=935) -->
    <rect x="908" y="163" width="56"  height="97"/>
    <ellipse cx="936" cy="163" rx="29" ry="23"/>

    <!-- Mid-right buildings -->
    <rect x="980" y="150" width="36"  height="110"/>
    <rect x="1014" y="158" width="28" height="102"/>
    <rect x="1048" y="143" width="38" height="117"/>
    <rect x="1145" y="153" width="34" height="107"/>
    <rect x="1180" y="160" width="28" height="100"/>
    <rect x="1296" y="150" width="38" height="110"/>
    <rect x="1334" y="158" width="34" height="102"/>
    <rect x="1372" y="166" width="32" height="94"/>

    <!-- Mid-ground organic tree blobs -->
    <ellipse cx="158" cy="221" rx="23"  ry="17"/>
    <ellipse cx="181" cy="215" rx="20"  ry="15"/>
    <ellipse cx="1092" cy="218" rx="20" ry="15"/>
    <ellipse cx="1116" cy="213" rx="23" ry="17"/>
  </g>

  <!-- ====================================================
       LAYER 3 · FOREGROUND  #3a3a3a
       ==================================================== -->
  <g fill="#3a3a3a">

    <!-- ─── LEFT YOGA FIGURE · warrior-2 / extended triangle pose ─── -->
    <!-- Head -->
    <ellipse cx="120" cy="183" rx="8"  ry="9"/>
    <!-- Neck -->
    <rect x="117" y="191" width="6"   height="7"/>
    <!-- Torso (slightly angled) -->
    <polygon points="111,197  129,197  131,218  109,218"/>
    <!-- Left arm extended outward-left (slightly downward) -->
    <polygon points="111,202  83,218  81,213  109,197"/>
    <!-- Right arm extended outward-right (slightly upward) -->
    <polygon points="129,199  158,188  160,193  131,205"/>
    <!-- Hip joint -->
    <polygon points="107,216  133,216  136,226  104,226"/>
    <!-- Left leg forward / bent -->
    <polygon points="104,225  116,225  111,260  99,260"/>
    <!-- Left foot -->
    <polygon points="96,258  114,258  115,263  95,263"/>
    <!-- Right leg back / straight -->
    <polygon points="116,225  130,225  137,258  123,258"/>
    <!-- Right foot -->
    <polygon points="121,257  139,257  140,262  120,262"/>

    <!-- Low buildings, left cluster -->
    <rect x="0"   y="238" width="62"  height="62"/>
    <rect x="58"  y="231" width="40"  height="69"/>
    <rect x="94"  y="237" width="36"  height="63"/>

    <!-- Trees left – organic blobs -->
    <rect  x="147" y="237" width="6"  height="23"/>
    <ellipse cx="150" cy="229" rx="21" ry="16"/>
    <ellipse cx="139" cy="234" rx="14" ry="11"/>
    <ellipse cx="165" cy="233" rx="15" ry="12"/>

    <rect  x="180" y="240" width="5"  height="20"/>
    <ellipse cx="182" cy="232" rx="18" ry="14"/>
    <ellipse cx="171" cy="236" rx="12" ry="10"/>
    <ellipse cx="196" cy="235" rx="13" ry="10"/>

    <!-- Foreground buildings sweeping across -->
    <rect x="221" y="234" width="46"  height="66"/>
    <rect x="265" y="242" width="36"  height="58"/>
    <rect x="299" y="238" width="32"  height="62"/>
    <rect x="329" y="240" width="50"  height="60"/>
    <rect x="377" y="244" width="36"  height="56"/>
    <rect x="411" y="240" width="42"  height="60"/>
    <rect x="472" y="236" width="56"  height="64"/>
    <rect x="525" y="242" width="46"  height="58"/>
    <rect x="568" y="244" width="46"  height="56"/>
    <rect x="612" y="240" width="41"  height="60"/>
    <rect x="651" y="237" width="46"  height="63"/>
    <rect x="695" y="240" width="41"  height="60"/>
    <rect x="733" y="235" width="36"  height="65"/>
    <rect x="766" y="242" width="46"  height="58"/>
    <rect x="810" y="238" width="41"  height="62"/>
    <rect x="849" y="240" width="46"  height="60"/>
    <rect x="893" y="244" width="36"  height="56"/>
    <rect x="927" y="237" width="50"  height="63"/>

    <!-- Trees right cluster -->
    <rect  x="1012" y="239" width="6" height="21"/>
    <ellipse cx="1015" cy="231" rx="20" ry="15"/>
    <ellipse cx="1004" cy="236" rx="13" ry="10"/>
    <ellipse cx="1028" cy="235" rx="14" ry="10"/>

    <rect x="1035" y="237" width="50"  height="63"/>
    <rect x="1083" y="242" width="41"  height="58"/>
    <rect x="1122" y="238" width="36"  height="62"/>

    <!-- ─── RIGHT YOGA FIGURE · raised-arms / warrior-1 variation ─── -->
    <!-- Head -->
    <ellipse cx="1210" cy="182" rx="8"  ry="9"/>
    <!-- Neck -->
    <rect x="1207" y="190" width="6"   height="7"/>
    <!-- Torso upright -->
    <polygon points="1202,196  1220,196  1222,218  1200,218"/>
    <!-- Left arm raised upper-left -->
    <polygon points="1202,200  1178,183  1176,188  1200,205"/>
    <!-- Right arm raised upper-right -->
    <polygon points="1220,200  1248,184  1250,189  1222,206"/>
    <!-- Hip -->
    <polygon points="1198,216  1224,216  1226,226  1196,226"/>
    <!-- Left leg angled left -->
    <polygon points="1196,225  1207,225  1200,260  1188,260"/>
    <!-- Left foot -->
    <polygon points="1185,258  1203,258  1204,263  1184,263"/>
    <!-- Right leg angled right -->
    <polygon points="1207,225  1220,225  1228,258  1215,258"/>
    <!-- Right foot -->
    <polygon points="1213,257  1231,257  1232,262  1212,262"/>

    <!-- Right side buildings -->
    <rect x="1155" y="240" width="36"  height="60"/>
    <rect x="1240" y="237" width="41"  height="63"/>

    <!-- Trees far right -->
    <rect  x="1280" y="240" width="5"  height="20"/>
    <ellipse cx="1282" cy="232" rx="18" ry="13"/>
    <ellipse cx="1271" cy="236" rx="12" ry="10"/>
    <ellipse cx="1295" cy="235" rx="12" ry="9"/>

    <!-- Thin cross / antenna (far right) -->
    <rect x="1312" y="157" width="4"   height="83"/>
    <rect x="1303" y="170" width="22"  height="4"/>
    <circle cx="1314" cy="154" r="5"/>

    <!-- Right-edge buildings -->
    <rect x="1320" y="234" width="50"  height="66"/>
    <rect x="1367" y="240" width="41"  height="60"/>
    <rect x="1406" y="236" width="38"  height="64"/>

    <!-- ─── Solid ground strip ─── -->
    <rect x="0" y="264" width="1440"  height="36"/>
  </g>
</svg>
