<svg xmlns="http://www.w3.org/2000/svg" viewBox="0 0 1440 300" preserveAspectRatio="xMidYMax slice" width="100%" height="300">
  <g fill="#3a3a3a">
    <!-- Collserola -->
    <rect x="208" y="216" width="18" height="34" rx="1"/>
    <rect x="213" y="130" width="7" height="88"/>
    <rect x="198" y="165" width="30" height="8" rx="3"/>
    <rect x="214" y="88" width="5" height="44"/>
    <rect x="208" y="80" width="13" height="11" rx="2"/>
    <rect x="212" y="58" width="3" height="24"/>

    <!-- Sagrada Familia -->
    <rect x="545" y="178" width="152" height="82"/>
    <rect x="556" y="160" width="132" height="22"/>
    <polygon points="570,160 581,140 592,160"/>
    <polygon points="594,160 606,133 618,160"/>
    <polygon points="620,160 631,140 642,160"/>
    <rect x="591" y="108" width="18" height="72"/>
    <rect x="558" y="115" width="24" height="70"/>
    <circle cx="570" cy="85" r="10"/>
    <rect x="588" y="96" width="27" height="92"/>
    <circle cx="601" cy="61" r="12"/>
    <rect x="621" y="103" width="26" height="85"/>
    <circle cx="634" cy="70" r="11"/>
    <rect x="649" y="117" width="24" height="73"/>
    <circle cx="661" cy="89" r="10"/>

    <!-- Torre Agbar -->
    <path d="M 769 196 L 769 156 C 769 117 778 106 792 104 C 806 106 815 117 815 156 L 815 196 Z"/>
    <ellipse cx="792" cy="105" rx="23" ry="10"/>

    <!-- Fill Blocks -->
    <rect x="0" y="238" width="62" height="62"/>
    <rect x="58" y="231" width="40" height="69"/>
    <rect x="340" y="192" width="100" height="108"/>
    <rect x="1000" y="220" width="440" height="80"/>
    <rect x="0" y="264" width="1440" height="36"/>
  </g>
</svg>
